<svg xmlns="http://www.w3.org/2000/svg" width="1302.788" height="124.825" viewBox="0 0 1302.788 124.825">
  <path id="Path_607" data-name="Path 607" d="M100.863-3.256Q86,2.087,66.546,2.087q-19.121,0-32.981-7.306A50.021,50.021,0,0,1,12.4-26.009q-7.306-13.485-7.306-31.1,0-18.954,8.183-33.732A56.59,56.59,0,0,1,36.4-113.68q14.946-8.057,34.4-8.057a119.566,119.566,0,0,1,30.059,3.757v33.315a42.421,42.421,0,0,0-11.94-4.676A59.674,59.674,0,0,0,74.9-91.011q-14.7,0-23.17,8.433T43.251-59.7q0,14.361,8.475,22.669T74.4-28.723a58.814,58.814,0,0,0,26.468-6.68ZM237.647-60.2q0,18.035-7.765,32.271A55.364,55.364,0,0,1,208.172-5.8a62.288,62.288,0,0,1-31.228,7.89,62.346,62.346,0,0,1-30.685-7.64,54.067,54.067,0,0,1-21.5-21.458,63.258,63.258,0,0,1-7.682-31.269,69,69,0,0,1,7.765-32.9,55.167,55.167,0,0,1,21.792-22.586q14.027-7.974,31.9-7.974A61.613,61.613,0,0,1,209.3-114.1,52.086,52.086,0,0,1,230.257-92.3Q237.647-78.152,237.647-60.2Zm-38.241,1q0-14.779-5.678-23.3T178.2-91.011q-10.771,0-16.783,8.183T155.4-59.7q0,14.612,5.97,22.794a19.045,19.045,0,0,0,16.24,8.183A18.593,18.593,0,0,0,188.885-32.4a23.532,23.532,0,0,0,7.765-10.521A43.525,43.525,0,0,0,199.405-59.2ZM368.5,0V-65.628q0-9.268.584-20.373l.25-5.511h-1q-2.672,14.111-4.091,19.538L346.626,0h-33.9L294.274-71.139q-.751-2.672-3.924-20.373h-1q1.169,28.055,1.169,35.068V0H258.871V-119.733h54.022L329.342-54.69a80.283,80.283,0,0,1,1.545,8.141q.96,6.137,1.211,9.477h.5q.918-7.6,2.922-17.952l15.363-64.709h53.187V0Zm63.39,0V-119.733h36.07V0ZM579.446,0,537.2-57.779a137.709,137.709,0,0,1-8.183-12.357h-.334q.5,8.851.5,19.872V0h-33.4V-119.733h34.066l40.5,54.94q.751,1.085,1.837,2.588t2.171,3.089q1.085,1.586,2.046,3.089a19,19,0,0,1,1.461,2.672h.334a108.514,108.514,0,0,1-.5-12.691v-53.688h33.4V0ZM743.783-7.849Q737.02-4.008,723.577-.96a116,116,0,0,1-25.633,3.048q-31.478,0-48.595-15.739T632.232-57.779q0-19.037,8.642-33.816a56.089,56.089,0,0,1,24.339-22.46q15.7-7.682,36.989-7.682a137.643,137.643,0,0,1,33.315,4.425v31.478a70.833,70.833,0,0,0-15.864-5.219,88.116,88.116,0,0,0-16.616-1.461q-14.862,0-23.671,8.934t-8.809,24.548q0,14.946,7.389,23.379t20.665,8.433a44.739,44.739,0,0,0,9.1-.668V-45H684.751v-27.3h59.032ZM902.459-36.237a34.583,34.583,0,0,1-6.387,20.791Q889.684-6.6,878.162-2.254T850.441,2.087a90.546,90.546,0,0,1-34.4-6.346V-37.072a67.949,67.949,0,0,0,16.616,8.892,48.875,48.875,0,0,0,16.95,3.382q5.928,0,9.185-2.129a6.968,6.968,0,0,0,3.256-6.22,8.432,8.432,0,0,0-1.628-5.135,15.988,15.988,0,0,0-4.926-4.133,91.756,91.756,0,0,0-12.232-5.26q-28.89-11.1-28.89-35.9,0-17.367,13.192-27.762t35.4-10.4q6.262,0,11.522.5t9.56,1.252q4.3.751,12.065,2.839v30.476Q881-94.935,866.389-94.935q-6.012,0-9.686,2.254A6.937,6.937,0,0,0,853.03-86.5a7.748,7.748,0,0,0,2.964,6.22q2.964,2.463,12.4,6.387,18.62,7.515,26.343,16.449A31.37,31.37,0,0,1,902.459-36.237ZM1035.235-60.2q0,18.035-7.765,32.271A55.364,55.364,0,0,1,1005.761-5.8a62.288,62.288,0,0,1-31.228,7.89,62.346,62.346,0,0,1-30.685-7.64,54.067,54.067,0,0,1-21.5-21.458,63.258,63.258,0,0,1-7.682-31.269,69,69,0,0,1,7.765-32.9,55.167,55.167,0,0,1,21.792-22.586q14.027-7.974,31.9-7.974a61.613,61.613,0,0,1,30.768,7.64A52.086,52.086,0,0,1,1027.845-92.3Q1035.235-78.152,1035.235-60.2Zm-38.241,1q0-14.779-5.678-23.3t-15.53-8.517q-10.771,0-16.783,8.183T952.991-59.7q0,14.612,5.97,22.794a19.045,19.045,0,0,0,16.24,8.183A18.593,18.593,0,0,0,986.473-32.4a23.532,23.532,0,0,0,7.765-10.521A43.525,43.525,0,0,0,996.994-59.2Zm173.355-1q0,18.035-7.765,32.271A55.364,55.364,0,0,1,1140.874-5.8a62.288,62.288,0,0,1-31.228,7.89,62.346,62.346,0,0,1-30.685-7.64,54.067,54.067,0,0,1-21.5-21.458,63.258,63.258,0,0,1-7.682-31.269,69,69,0,0,1,7.765-32.9,55.167,55.167,0,0,1,21.792-22.586q14.027-7.974,31.9-7.974A61.613,61.613,0,0,1,1142-114.1,52.086,52.086,0,0,1,1162.959-92.3Q1170.348-78.152,1170.348-60.2Zm-38.241,1q0-14.779-5.678-23.3t-15.53-8.517q-10.771,0-16.783,8.183T1088.1-59.7q0,14.612,5.97,22.794a19.045,19.045,0,0,0,16.24,8.183,18.593,18.593,0,0,0,11.272-3.674,23.532,23.532,0,0,0,7.765-10.521A43.525,43.525,0,0,0,1132.107-59.2ZM1275.236,0l-42.249-57.779a137.709,137.709,0,0,1-8.183-12.357h-.334q.5,8.851.5,19.872V0h-33.4V-119.733h34.066l40.5,54.94q.751,1.085,1.837,2.588t2.171,3.089q1.085,1.586,2.046,3.089a19,19,0,0,1,1.461,2.672h.334a108.514,108.514,0,0,1-.5-12.691v-53.688h33.4V0Z" transform="translate(-4.593 122.237)" fill="none" stroke="#fff" stroke-width="1"/>
</svg>
