<svg xmlns="http://www.w3.org/2000/svg" width="542" height="541" viewBox="0 0 542 541">
  <defs>
    <style>
      .cls-1 {
        fill: #21dc52;
        fill-rule: evenodd;
      }
    </style>
  </defs>
  <g id="Artboard_1" data-name="Artboard 1">
    <path id="NOW_PLAYING_NOW_PLAYING_NOW_PLAYING_copy_2" data-name="NOW PLAYING NOW PLAYING NOW PLAYING copy 2" class="cls-1" d="M46.481,149.4l32.025,20.319,5.668-8.933-14.36-9.111a34.382,34.382,0,0,0-3.48-2.02l0.057-.089a6.041,6.041,0,0,0,.963.062c0.377,0,.768-0.009,1.173-0.022s0.8-.034,1.195-0.057,0.725-.041,1-0.052l21.567-1.507,5.781-9.112-32.025-20.32-5.668,8.933,13.444,8.531q2.948,1.87,5.4,3.238l-0.057.089a43.739,43.739,0,0,0-4.694.092l-22.624,1.5Zm7.491,58.987a16.5,16.5,0,0,0,8.765-3.861,19.516,19.516,0,0,0,5.624-8.32,20.08,20.08,0,0,0,1.1-10.355,17.48,17.48,0,0,0-4.345-8.943,21.857,21.857,0,0,0-8.94-5.892,20.038,20.038,0,0,0-10.138-1.121,17.122,17.122,0,0,0-8.724,4.058,20.777,20.777,0,0,0-6.669,18.444,17.542,17.542,0,0,0,4.217,8.867,20.994,20.994,0,0,0,8.753,5.824A21.646,21.646,0,0,0,53.972,208.384Zm-11.03-15.376a7.449,7.449,0,0,1-2.284-3.455,5.888,5.888,0,0,1,.135-3.753,6.033,6.033,0,0,1,4.2-3.94,12.055,12.055,0,0,1,7.43.707q4.445,1.627,6.225,4.307a6.222,6.222,0,0,1,.606,5.884,5.618,5.618,0,0,1-4.225,3.691,13.161,13.161,0,0,1-7.548-.848A13.773,13.773,0,0,1,42.941,193.008Zm10.1,82.211L54.2,264.012l-21.861-5.6-3.621-.722-0.912-.175,0.011-.105,2.211-.036,2.272-.11,22.864-2.516,1.288-12.39-21.441-8.106A22.216,22.216,0,0,0,32.6,233.5q-1.617-.434-2.3-0.558l0.016-.158,2.2,0.07q2.042,0.052,2.471.017l22.531-.849,1.3-12.469-38.659,5.075-1.329,12.786,20.9,7.89a36.49,36.49,0,0,0,4.5,1.238l-0.011.106a37.4,37.4,0,0,0-4.632.05l-22.037,3L16.3,261.775Zm5.738,51.728q2.239-4.248.64-12.1l-3.1-15.239-37.165,7.567,2.28,11.2,11.948-2.433,0.7,3.421a20.394,20.394,0,0,0,3.314,7.989,12.833,12.833,0,0,0,5.7,4.576,12.337,12.337,0,0,0,7.157.554Q56.536,331.2,58.775,326.947Zm-16.88-10.126-0.512-2.514,9.175-1.868,0.433,2.125a5.828,5.828,0,0,1-.375,4.125,4.441,4.441,0,0,1-3.178,2.024q-4.562.928-5.543-3.892h0ZM38.26,373.167l8.354-3.183-4.652-12.21,27.088-10.322-4.069-10.676-35.441,13.5Zm24.645,44.106,26.217-30.04-7.285-12.162-39.251,8.281,6.347,10.6,6.914-2.045,5.817,9.711-5.134,5.018Zm12.128-29.216-7.49,7.57-3.724-6.217q10.943-3.2,12.354-3.67a18.537,18.537,0,0,0,1.983-.756l0.136,0.227a32.517,32.517,0,0,0-3.259,2.846h0Zm46.3,39-8.047-9.018L101.53,423.1a24.094,24.094,0,0,0-3.293,1.911l-0.071-.079q0.549-.774,1.106-1.5a15.521,15.521,0,0,0,1.183-1.853l6.17-11-8.734-9.789L87.085,426.1l-9.709,8.664,7.607,8.525,9.828-8.77ZM110.181,466.91l24.656-28.819-8.682-7.428L101.5,459.483Zm43.44,29.315,19.859-32.313-9.013-5.539-8.905,14.489a34.388,34.388,0,0,0-1.97,3.508l-0.09-.056a6.093,6.093,0,0,0,.049-0.963q-0.01-.566-0.04-1.173c-0.02-.4-0.044-0.8-0.073-1.194s-0.051-.725-0.066-1l-1.816-21.543-9.194-5.651L122.5,477.1l9.013,5.539,8.337-13.565q1.828-2.974,3.161-5.446l0.09,0.056a43.316,43.316,0,0,0,.159,4.692l1.818,22.6Zm56.122-2.5-17.618-6.266-2.9,8.148,6.852,2.438-1.817,5.108a14.136,14.136,0,0,1-2.787-.767,8.241,8.241,0,0,1-5.272-4.71,10.863,10.863,0,0,1,.277-7.762,10.59,10.59,0,0,1,5.234-6.391,10.053,10.053,0,0,1,8.013-.154,27.969,27.969,0,0,1,4.8,2.2,22.467,22.467,0,0,1,4.181,3.242l3.341-9.395a43.621,43.621,0,0,0-9.472-4.857,26.387,26.387,0,0,0-11.855-1.634,17.774,17.774,0,0,0-9.648,4.119,20.821,20.821,0,0,0-6.169,9.175q-3.013,8.474.424,14.987t12.832,9.856a36.774,36.774,0,0,0,7.974,1.812,24.471,24.471,0,0,0,6.761.089Zm64.786,31.065,2.167-37.865-10.562-.6L265.162,503.3a34.156,34.156,0,0,0-.071,4.023l-0.106-.006a6.008,6.008,0,0,0-.414-0.872q-0.276-.492-0.591-1.014c-0.209-.347-0.42-0.686-0.63-1.016s-0.389-.614-0.534-0.852L251,485.455l-10.773-.617L238.063,522.7l10.562,0.605,0.91-15.9q0.2-3.486.2-6.294l0.106,0.006a43.325,43.325,0,0,0,2.364,4.056l12.315,19.038Zm47.805-35.111a16.5,16.5,0,0,0-7.62-5.8,19.521,19.521,0,0,0-10-.894,20.072,20.072,0,0,0-9.6,4.047,17.477,17.477,0,0,0-5.723,8.13,21.86,21.86,0,0,0-.83,10.674,20.026,20.026,0,0,0,3.926,9.414,17.122,17.122,0,0,0,7.773,5.671,20.776,20.776,0,0,0,19.367-3.09,17.538,17.538,0,0,0,5.719-7.982,21,21,0,0,0,.86-10.479A21.635,21.635,0,0,0,322.334,489.679Zm-8.117,17.093a7.453,7.453,0,0,1-1.919,3.671,5.889,5.889,0,0,1-3.349,1.7,6.034,6.034,0,0,1-5.482-1.771,12.055,12.055,0,0,1-2.977-6.844q-0.728-4.679.757-7.532a6.223,6.223,0,0,1,4.855-3.378,5.621,5.621,0,0,1,5.275,1.911,13.161,13.161,0,0,1,2.91,7.015A13.784,13.784,0,0,1,314.217,506.772Zm67.076-48.638-10.369,4.409,5.693,21.836,1.122,3.518,0.29,0.883-0.1.041-1.1-1.916-1.2-1.935-13.276-18.784-11.464,4.875,3.294,22.684a22.17,22.17,0,0,0,.5,2.472q0.4,1.625.624,2.278l-0.146.062-1-1.958q-0.944-1.812-1.181-2.17l-11.656-19.3-11.537,4.906L352.956,511.4l11.829-5.03-3.222-22.11a36.561,36.561,0,0,0-1.095-4.536l0.1-.041a37.232,37.232,0,0,0,2.288,4.028l13.3,17.826,11.172-4.751Zm42.4-30.2q-4.8.11-10.885,5.324l-11.808,10.121,24.682,28.8,8.675-7.436-7.935-9.258,2.651-2.272a20.4,20.4,0,0,0,5.371-6.78,12.839,12.839,0,0,0,1.229-7.2,12.341,12.341,0,0,0-3-6.523Q428.5,427.821,423.7,427.931Zm-0.641,19.674-1.948,1.669-6.093-7.108,1.646-1.412a5.832,5.832,0,0,1,3.787-1.678,4.445,4.445,0,0,1,3.314,1.793q3.029,3.534-.706,6.736h0Zm51-24.121-6.832-5.765L458.8,427.7l-22.153-18.7-7.369,8.732L458.261,442.2ZM500.7,380.669l-38.969-8.432L454.6,384.492l26.22,30.359,6.209-10.678-5.133-5.064,5.69-9.786,6.874,2.069Zm-31.438,3.5,10.246,2.9-3.642,6.265q-8.086-8.037-9.184-9.042a18.306,18.306,0,0,0-1.62-1.37l0.133-.229a32.566,32.566,0,0,0,4.067,1.477h0Zm11.733-59.439-3.987,11.411,10.125,7.824a24.052,24.052,0,0,0,3.268,1.955l-0.035.1q-0.943-.107-1.849-0.24a15.438,15.438,0,0,0-2.194-.137l-12.613-.064-4.327,12.384,27.376-2.818,12.285,4.293,3.768-10.787-12.434-4.344Zm40.244-9.652-37.172-7.53-2.269,11.2,37.172,7.531Zm4.478-52.219-37.892-1.635-0.456,10.57,16.99,0.733a34.46,34.46,0,0,0,4.023.015l0,0.1a6.133,6.133,0,0,0-.866.426c-0.325.189-.661,0.391-1,0.6s-0.681.43-1.008,0.645-0.608.4-.844,0.546l-17.94,12.065-0.465,10.781,37.892,1.636,0.456-10.57-15.907-.686q-3.489-.151-6.3-0.113l0.005-.106a43.546,43.546,0,0,0,4.022-2.421l18.863-12.581Zm-29.35-47.757,3.042,18.45,8.533-1.407-1.183-7.176,5.35-.882a14.194,14.194,0,0,1,.677,2.81,8.244,8.244,0,0,1-1.57,6.893,10.862,10.862,0,0,1-6.927,3.514,10.59,10.59,0,0,1-8.126-1.488,10.054,10.054,0,0,1-4.012-6.938,27.843,27.843,0,0,1-.4-5.268,22.406,22.406,0,0,1,.813-5.227l-9.838,1.622a43.616,43.616,0,0,0,.333,10.64,26.4,26.4,0,0,0,4.307,11.165,17.771,17.771,0,0,0,8.275,6.45,20.821,20.821,0,0,0,11.014.958q8.872-1.462,12.91-7.624t2.415-16a36.741,36.741,0,0,0-2.274-7.854,24.457,24.457,0,0,0-3.194-5.961Zm-4.193-71.737L458,159.826l4.59,9.531,15.322-7.379a34.118,34.118,0,0,0,3.553-1.888l0.046,0.1a6.067,6.067,0,0,0-.561.784q-0.3.482-.6,1.008t-0.583,1.045c-0.186.344-.349,0.637-0.486,0.88l-10.114,19.108,4.683,9.722,34.17-16.457-4.59-9.531-14.345,6.908q-3.145,1.515-5.6,2.875l-0.046-.1a43.4,43.4,0,0,0,2.4-4.033l10.683-20Zm-54.005-24.786a16.5,16.5,0,0,0-1.361,9.48,19.523,19.523,0,0,0,4.085,9.174,20.081,20.081,0,0,0,8.2,6.414,17.483,17.483,0,0,0,9.887,1.044,21.847,21.847,0,0,0,9.73-4.469,20.033,20.033,0,0,0,6.314-8.009,17.118,17.118,0,0,0,1.172-9.551,20.778,20.778,0,0,0-12.122-15.416,17.548,17.548,0,0,0-9.756-1.113,21,21,0,0,0-9.574,4.347A21.646,21.646,0,0,0,438.167,118.582Zm18.883-1.225a7.451,7.451,0,0,1,4.141-.11,5.887,5.887,0,0,1,3.113,2.1,6.03,6.03,0,0,1,1.12,5.65,12.059,12.059,0,0,1-4.531,5.932q-3.733,2.912-6.948,3a6.216,6.216,0,0,1-5.313-2.6,5.616,5.616,0,0,1-.9-5.538,13.167,13.167,0,0,1,4.713-5.956A13.79,13.79,0,0,1,457.05,117.357ZM382.063,82.335l8.876,6.94,16.355-15.548,2.535-2.684,0.633-.68,0.083,0.065L409.4,72.32,408.287,74.3,398.273,95.01l9.813,7.673,18.258-13.859a22.363,22.363,0,0,0,1.919-1.638q1.227-1.139,1.691-1.648l0.126,0.1-1.228,1.827q-1.13,1.7-1.327,2.084l-11.25,19.54,9.876,7.722,16.236-35.449-10.126-7.918-17.79,13.52a36.58,36.58,0,0,0-3.439,3.153l-0.083-.065a37.444,37.444,0,0,0,2.418-3.951l9.164-20.264-9.563-7.478ZM335.079,59.814q2.423,4.147,9.932,6.943l14.574,5.426,13.233-35.544L362.11,32.652l-4.254,11.427-3.272-1.218a20.4,20.4,0,0,0-8.533-1.413,12.837,12.837,0,0,0-6.9,2.414,12.336,12.336,0,0,0-4.255,5.782Q332.657,55.667,335.079,59.814ZM352.6,50.843l2.4,0.9-3.267,8.774-2.032-.757a5.83,5.83,0,0,1-3.3-2.5,4.445,4.445,0,0,1-.037-3.767q1.625-4.363,6.234-2.646h0ZM306.687,17.959l-1.715,8.773,12.822,2.508-5.563,28.449,11.213,2.193,7.279-37.222Zm-50.378-2.452,11.576,38.154,14.173,0.269,13.784-37.672-12.349-.235-1.931,6.947-11.318-.215-1.533-7.013Zm18.345,25.77-2.449-10.363,7.246,0.138q-3.092,10.972-3.437,12.421a18.577,18.577,0,0,0-.41,2.082l-0.264-.005a32.7,32.7,0,0,0-.686-4.272h0Zm-57.6,18.528,11.915-2.032,1.948-12.647a24.016,24.016,0,0,0,.129-3.805l0.1-.018q0.364,0.877.685,1.734a15.521,15.521,0,0,0,.942,1.986l6.047,11.069,12.932-2.205L236.046,31.293l-2.187-12.827L222.6,20.386,224.81,33.37ZM189.149,29.248L200.54,65.424l10.9-3.431-11.39-36.176ZM141.2,50.679l16.949,33.929,9.465-4.728-7.6-15.214a34.4,34.4,0,0,0-1.939-3.525l0.095-.047a6.066,6.066,0,0,0,.792.55q0.484,0.29,1.017.586t1.052,0.568q0.521,0.272.887,0.474l19.253,9.836,9.654-4.823-16.95-33.929-9.464,4.728,7.115,14.244q1.561,3.123,2.956,5.56l-0.095.047a43.561,43.561,0,0,0-4.068-2.343L150.163,46.2ZM113.708,99.594l14.64-11.634-5.381-6.771-5.695,4.525L113.9,81.469a14.169,14.169,0,0,1,2.126-1.959,8.242,8.242,0,0,1,6.786-1.981,10.857,10.857,0,0,1,6.44,4.342,10.589,10.589,0,0,1,2.653,7.824,10.051,10.051,0,0,1-4.109,6.881,27.947,27.947,0,0,1-4.409,2.912,22.471,22.471,0,0,1-4.962,1.832l6.2,7.807a43.647,43.647,0,0,0,9.134-5.468,26.389,26.389,0,0,0,7.659-9.2A17.767,17.767,0,0,0,143.03,84.1a20.826,20.826,0,0,0-4.521-10.089q-5.595-7.041-12.941-7.57T110.415,72.11a36.758,36.758,0,0,0-5.757,5.808,24.429,24.429,0,0,0-3.653,5.69Z"/>
  </g>
</svg>
