<svg xmlns="http://www.w3.org/2000/svg" width="153.664" height="21.622" viewBox="0 0 153.664 21.622">
  <path id="Path_583" data-name="Path 583" d="M.217-9.562q-.743,0-.676-1.081l.473-2.635q.2-1.014,1.081-1.014h44.8q1.081,0,.811,1.014L46.3-10.643a1.151,1.151,0,0,1-1.216,1.081ZM3.055-25.576h7.3q.946,0,.878,1.081l-.473,2.635a1.128,1.128,0,0,1-1.216,1.014h-7.3q-1.081,0-.878-1.014l.473-2.635A1.058,1.058,0,0,1,3.055-25.576Zm37.569,0h7.23q1.081,0,.878,1.081L48.26-21.86a1.128,1.128,0,0,1-1.216,1.014h-7.3q-1.081,0-.878-1.014l.473-2.635A1.185,1.185,0,0,1,40.624-25.576Zm-18.784,0h7.3q1.014,0,.811,1.081l-.405,2.635a1.128,1.128,0,0,1-1.216,1.014h-7.3q-1.081,0-.878-1.014l.405-2.635A1.241,1.241,0,0,1,21.84-25.576Zm25,5.676a.834.834,0,0,1,.946,1.014l-.473,2.635a1.166,1.166,0,0,1-1.284,1.014H1.231q-1.014,0-.878-1.014l.473-2.635A1.128,1.128,0,0,1,2.042-19.9ZM34.678-3.954H8.664q-1.081,0-.878-1.014L8.258-7.6A1.058,1.058,0,0,1,9.475-8.684H35.489q1.081,0,.878,1.081l-.473,2.635A1.128,1.128,0,0,1,34.678-3.954Zm45.88-5.608H54.476q-.878,0-.676-1.081l.473-2.635q.068-1.014,1.014-1.014H81.369q.946,0,.878,1.014l-.473,2.635A1.151,1.151,0,0,1,80.558-9.562ZM75.085-19.9h7.3q1.014,0,.811,1.014l-.405,2.635A1.286,1.286,0,0,1,81.5-15.238h-7.3q-1.014,0-.811-1.014l.473-2.635Q73.936-19.9,75.085-19.9ZM56.3-19.9h7.3q1.014,0,.811,1.014L64-16.251a1.25,1.25,0,0,1-1.216,1.014h-7.3q-1.081,0-.878-1.014l.473-2.635Q55.152-19.9,56.3-19.9ZM80.355-8.684q.946,0,.878,1.081l-.473,2.635a1.128,1.128,0,0,1-1.216,1.014H58.192q-1.081,0-.878-1.014L57.787-7.6A1.058,1.058,0,0,1,59-8.684Zm2.162-12.163H65.828q-1.149,0-.811-1.014l.405-2.635a1.185,1.185,0,0,1,1.284-1.081H83.328q.946,0,.878,1.081L83.8-21.86A1.286,1.286,0,0,1,82.518-20.846ZM114.951-9.562H88.869q-.743,0-.676-1.081l.473-2.635q.2-1.014,1.081-1.014h26.014q1.081,0,.878,1.014l-.473,2.635A1.151,1.151,0,0,1,114.951-9.562ZM91.707-25.576H99q.946,0,.878,1.081L99.41-21.86a1.128,1.128,0,0,1-1.216,1.014H90.9q-1.081,0-.878-1.014l.473-2.635A1.058,1.058,0,0,1,91.707-25.576Zm18.784,0h7.3q1.014,0,.811,1.081l-.405,2.635a1.128,1.128,0,0,1-1.216,1.014h-7.3q-1.081,0-.878-1.014l.405-2.635A1.241,1.241,0,0,1,110.491-25.576Zm6.284,5.676q.946,0,.878,1.014l-.473,2.635a1.166,1.166,0,0,1-1.284,1.014H89.883q-1.014,0-.878-1.014l.473-2.635A1.128,1.128,0,0,1,90.693-19.9ZM98.126-8.684h7.3q1.014,0,.811,1.081l-.473,2.635a1.078,1.078,0,0,1-1.216,1.014h-7.23q-1.081,0-.878-1.014L96.91-7.6A1.058,1.058,0,0,1,98.126-8.684Zm26.15-5.608h16.69q.946,0,.878,1.014l-.473,2.635a1.151,1.151,0,0,1-1.216,1.081h-16.69q-.878,0-.676-1.081l.473-2.635Q123.33-14.292,124.276-14.292Zm11.419-11.284h16.622q.946,0,.878,1.081l-.405,2.635a1.286,1.286,0,0,1-1.284,1.014h-16.69q-1.149,0-.811-1.014l.405-2.635A1.185,1.185,0,0,1,135.695-25.576ZM151.371-19.9q1.014,0,.811,1.014l-.405,2.635a1.286,1.286,0,0,1-1.284,1.014H124.478q-1.081,0-.878-1.014l.473-2.635q.068-1.014,1.216-1.014ZM132.722-8.684h16.622q.946,0,.878,1.081l-.473,2.635a1.128,1.128,0,0,1-1.216,1.014h-16.69q-1.081,0-.878-1.014l.473-2.635A1.185,1.185,0,0,1,132.722-8.684Z" transform="translate(0.464 25.576)" fill="#fff"/>
</svg>
